<?xml version="1.0" standalone="no"?>
<!DOCTYPE svg PUBLIC "-//W3C//DTD SVG 20010904//EN"
 "http://www.w3.org/TR/2001/REC-SVG-20010904/DTD/svg10.dtd">
<svg version="1.0" xmlns="http://www.w3.org/2000/svg"
 width="256.000000pt" height="256.000000pt" viewBox="0 0 256.000000 256.000000"
 preserveAspectRatio="xMidYMid meet">

<g transform="translate(0.000000,256.000000) scale(0.100000,-0.100000)"
fill="#000000" stroke="none">
<path d="M65 2199 c15 -53 68 -156 93 -182 42 -45 103 -70 317 -132 481 -140
643 -222 728 -368 34 -58 35 -72 1 -21 -96 143 -261 227 -579 294 -55 11 -154
36 -220 55 -66 18 -121 32 -123 30 -7 -7 68 -93 111 -127 56 -46 86 -56 187
-63 310 -22 488 -81 593 -194 53 -57 46 -62 -12 -8 -59 56 -128 91 -212 110
-79 18 -291 40 -339 36 l-35 -4 43 -29 c42 -29 49 -30 200 -37 93 -4 177 -14
207 -23 101 -31 181 -101 222 -196 21 -49 27 -24 13 62 -27 179 -119 284 -351
405 -80 42 -115 57 -314 138 -200 82 -266 111 -346 155 -97 53 -107 60 -153
94 l-39 30 8 -25z"/>
<path d="M2465 2196 c-58 -45 -168 -107 -268 -152 -131 -58 -127 -56 -232 -98
-49 -20 -98 -41 -107 -46 -10 -6 -22 -10 -27 -10 -17 0 -186 -84 -271 -134
-164 -98 -241 -208 -265 -378 -8 -52 10 -70 20 -20 20 93 96 179 209 233 44
22 87 39 97 39 9 0 35 6 57 14 38 14 157 31 287 41 146 12 160 18 254 118 79
83 79 90 0 61 -41 -14 -257 -69 -374 -95 -237 -52 -418 -154 -494 -279 -32
-53 -25 -22 9 36 66 116 229 210 520 298 47 14 123 37 170 51 305 93 292 88
335 131 42 40 121 182 114 203 -2 6 -17 0 -34 -13z"/>
<path d="M1779 1620 c-108 -10 -226 -38 -282 -67 -58 -29 -125 -89 -151 -135
-16 -28 -13 -26 23 14 49 55 140 104 221 118 30 5 109 11 175 13 110 3 124 6
168 31 26 15 47 30 47 32 0 6 -112 2 -201 -6z"/>
<path d="M1183 1141 c-112 -29 -166 -132 -113 -218 26 -43 77 -68 184 -88 50
-9 98 -21 108 -26 24 -13 38 -50 31 -78 -15 -56 -147 -70 -253 -27 l-59 23
-14 -21 c-7 -11 -17 -27 -21 -34 -5 -9 10 -20 50 -39 44 -20 78 -27 150 -31
87 -4 97 -3 149 23 69 33 95 71 95 139 0 43 -4 53 -38 86 -31 32 -49 40 -117
55 -133 28 -155 35 -176 56 -24 24 -24 50 0 80 18 22 27 24 108 24 75 0 94 -4
131 -25 37 -21 45 -22 52 -10 12 18 12 51 2 67 -23 36 -193 64 -269 44z"/>
<path d="M398 1126 c-25 -12 -32 -33 -88 -236 -17 -63 -34 -123 -36 -132 -3
-10 -9 -18 -13 -18 -4 0 -36 88 -70 195 l-64 195 -33 0 c-61 0 -61 -22 -5
-188 28 -81 66 -187 85 -237 l34 -90 49 -3 c60 -4 53 -14 113 196 24 84 47
149 50 145 4 -5 20 -57 35 -118 16 -60 36 -135 46 -165 l17 -55 52 0 53 0 60
165 c32 91 72 205 87 253 l28 88 -24 9 c-41 16 -70 -3 -87 -57 -9 -26 -37
-115 -62 -196 -25 -82 -49 -147 -51 -144 -7 6 -67 227 -89 325 -14 60 -19 71
-40 75 -14 2 -35 -1 -47 -7z"/>
<path d="M1617 1125 c-22 -10 -22 -15 -25 -263 l-2 -252 195 0 195 0 0 40 0
39 -147 3 -148 3 -3 72 -3 72 143 3 143 3 3 29 c2 16 -2 32 -10 37 -7 5 -73 9
-145 9 l-133 0 0 65 0 64 148 3 147 3 3 29 c2 16 -1 33 -7 39 -15 15 -325 17
-354 2z"/>
<path d="M2103 1128 c-23 -11 -23 -12 -23 -265 l0 -253 39 0 c35 0 40 3 45 28
3 15 4 59 3 97 l-2 70 70 -3 c80 -4 77 -1 135 -113 l41 -79 50 0 c27 0 49 2
49 5 0 10 -62 129 -88 167 l-25 38 41 38 c45 42 57 73 50 136 -6 53 -30 87
-83 118 -35 20 -56 23 -160 25 -75 2 -128 -2 -142 -9z m219 -70 c93 -28 106
-132 20 -167 -16 -7 -61 -11 -103 -9 l-74 3 -1 85 c0 50 4 88 10 92 17 12 104
9 148 -4z"/>
<path d="M866 1115 c-3 -8 -6 -125 -6 -260 l0 -245 45 0 45 0 0 260 0 260 -39
0 c-25 0 -41 -5 -45 -15z"/>
<path d="M2323 523 c9 -2 23 -2 30 0 6 3 -1 5 -18 5 -16 0 -22 -2 -12 -5z"/>
<path d="M1590 440 l0 -60 40 0 c22 0 40 5 40 10 0 6 -14 10 -31 10 -24 0 -30
4 -27 18 2 11 11 16 25 14 12 -2 24 2 28 8 4 6 -6 10 -24 10 -21 0 -31 5 -31
15 0 10 10 15 30 15 17 0 30 5 30 10 0 6 -18 10 -40 10 l-40 0 0 -60z"/>
<path d="M1700 440 l0 -60 30 0 c58 0 92 67 52 103 -10 10 -33 17 -50 17 l-32
0 0 -60z m76 14 c7 -28 -11 -54 -37 -54 -16 0 -19 8 -19 44 0 41 1 43 25 38
16 -3 27 -13 31 -28z"/>
<path d="M1820 452 c0 -26 5 -53 12 -60 16 -16 53 -15 66 1 15 18 19 100 4
105 -8 2 -12 -11 -12 -47 0 -48 -2 -51 -25 -51 -23 0 -25 3 -25 50 0 28 -4 50
-10 50 -5 0 -10 -22 -10 -48z"/>
<path d="M1944 474 c-19 -29 -11 -69 17 -87 21 -13 65 -2 73 19 9 24 -3 33
-15 11 -22 -39 -75 -6 -63 41 8 29 33 36 56 16 21 -20 37 -11 18 11 -20 24
-67 19 -86 -11z"/>
<path d="M2071 444 c-20 -54 -20 -88 0 -51 13 22 48 22 65 0 22 -32 24 -8 2
50 -11 31 -26 57 -33 57 -7 0 -22 -25 -34 -56z m49 -6 c0 -5 -7 -8 -15 -8 -15
0 -20 21 -8 33 7 7 23 -11 23 -25z"/>
<path d="M2181 481 c-18 -33 -13 -70 14 -93 14 -12 23 -28 20 -36 -3 -8 0 -12
7 -10 7 3 13 11 13 19 0 8 8 20 18 27 9 7 17 20 17 29 0 14 -2 14 -19 -1 -29
-26 -55 -17 -59 20 -4 44 20 62 54 39 25 -16 26 -16 22 2 -5 27 -73 31 -87 4z"/>
<path d="M2303 440 c-12 -33 -17 -60 -12 -60 5 0 12 7 15 15 4 9 19 15 35 15
19 0 29 -5 29 -15 0 -8 5 -15 11 -15 13 0 7 28 -16 83 -8 20 -21 37 -28 37 -6
0 -22 -27 -34 -60z m47 4 c0 -8 -7 -14 -15 -14 -17 0 -18 2 -9 24 7 18 24 12
24 -10z"/>
<path d="M2416 478 c-9 -12 -16 -29 -16 -38 0 -9 7 -26 16 -38 40 -57 127 7
93 67 -20 36 -71 41 -93 9z m60 4 c29 -20 19 -82 -14 -82 -39 0 -55 45 -26 74
17 18 24 19 40 8z"/>
</g>
</svg>
